<?xml version="1.0" encoding="UTF-8"?>
<svg xmlns="http://www.w3.org/2000/svg" viewBox="0 0 869.44 403">
  <defs>
    <style>.a{fill:#2d2d2d;}.b{fill:#cc2c24;}.c{fill:#f6a017;}</style>
  </defs>
  <path class="a" d="M390.1,178.35a24.11,24.11,0,0,0-9.25-5,44.26,44.26,0,0,0-11.41-1.31q-10.69,0-17.87,8.81a30.37,30.37,0,0,0-6.83,19.85q0,10.32,8.26,18.05a26.1,26.1,0,0,0,18.33,7.45h2.33a31.58,31.58,0,0,0,8.89-2,25.32,25.32,0,0,0,7.37-5.09L387.4,240a45.94,45.94,0,0,1-6,2.11,39.39,39.39,0,0,1-8.76,1.21h-2A42.48,42.48,0,0,1,339.13,230a43.8,43.8,0,0,1-13.07-31.75,41.83,41.83,0,0,1,12.66-30.54,41.4,41.4,0,0,1,30.45-12.75,60.31,60.31,0,0,1,9.34.58A42.87,42.87,0,0,1,387,158Z"></path>
  <path class="a" d="M455.71,224.52,451,241h-47V156.71l17.88-1.62v69.43Z"></path>
  <path class="a" d="M483.15,241l-17.88,1.62V156.7l17.88-1.7Z"></path>
  <path class="a" d="M593.4,241l-17.7,2.15-7.54-44.28-23,46L521.9,199.91l-7.1,43.38L497.29,241l17-89.57L545,211l30.09-59.58Z"></path>
  <path class="a" d="M665.92,215q0,12.51-6.91,19.26T639.87,241H608.35V156.7H633.5q11.58,0,18.86,4.49a19.77,19.77,0,0,1,9.52,14.74,29.16,29.16,0,0,1,.27,3.77,18.72,18.72,0,0,1-5.3,13.38,27.38,27.38,0,0,1-5.3,4,34.52,34.52,0,0,1,7.19,3.87Q665.93,206.57,665.92,215Zm-21.55-34.34a7.54,7.54,0,0,0-2.92-6.25,11,11,0,0,0-7-2.29h-8.9v19h8.9a9.3,9.3,0,0,0,7-3A10.57,10.57,0,0,0,644.37,180.69Zm3.41,34.12a9,9,0,0,0-3.41-7.33,12.3,12.3,0,0,0-8.09-2.81H625.59V226l11.23.09c3.47,0,6.17-1.07,8.08-3.21A11.59,11.59,0,0,0,647.78,214.81Z"></path>
  <path class="a" d="M694.35,241l-17.88,1.62V156.7l17.88-1.7Z"></path>
  <path class="a" d="M779.36,247.22,726,193v48l-17.52,1.35V151.65l53.8,54v-49l17.07-1.61Z"></path>
  <path class="a" d="M867.6,230.27q-4.67,4.66-13.74,8.8a42.26,42.26,0,0,1-17.51,4.13A45.17,45.17,0,0,1,803.83,230q-13.65-13.22-13.65-31.8a43.41,43.41,0,0,1,12.26-30.85,39.54,39.54,0,0,1,29.86-13,51.2,51.2,0,0,1,18.51,3.34,46.77,46.77,0,0,1,11.31,6.23,39.36,39.36,0,0,1,4,3.52L855.57,180.6a23.92,23.92,0,0,0-9.16-6.81,31.49,31.49,0,0,0-13.48-2.89q-10.95,0-18.32,9.14a31.51,31.51,0,0,0-7,20.36A24.91,24.91,0,0,0,815.55,219a26.52,26.52,0,0,0,19.09,7.66,25.22,25.22,0,0,0,11.59-2.78c3-2,4.52-3,4.58-3.06V207.09H827l5.65-16.17H867.6Z"></path>
  <path class="a" d="M387.51,110.09l-5.12,18.13H330.84V35.68l19.62-1.78v76.19Z"></path>
  <path class="a" d="M493.51,82.29q0,20.2-14.74,34.45A48.93,48.93,0,0,1,443.54,131q-20.61,0-35.09-15.28A51,51,0,0,1,394,79.34Q394,59.72,409,46.17a51.39,51.39,0,0,1,35.48-13.55,46.74,46.74,0,0,1,34.65,14.64A48.27,48.27,0,0,1,493.51,82.29ZM473.5,79a29.31,29.31,0,0,0-10-20,30.9,30.9,0,0,0-21.18-7.93q-11.83,0-20.28,9.22a30.6,30.6,0,0,0-8.44,21.33c0,.66,0,1.25.05,1.78s.08,1,.14,1.38a29.79,29.79,0,0,0,9.81,19.46,28.83,28.83,0,0,0,20.16,7.93h1.57a8.3,8.3,0,0,1,1.48-.19,28.82,28.82,0,0,0,19.07-10A29.92,29.92,0,0,0,473.5,81.7V79Z"></path>
  <path class="a" d="M582.35,135,523.81,75.49v52.63l-19.22,1.48V30.13l59,59.26V35.68l18.73-1.78Z"></path>
  <path class="a" d="M674,82.05q0,20.42-14.68,33.54-14.1,12.63-34.5,12.63H598.16V35.68h23.16q22.77,0,37.36,12.13Q674,60.54,674,82.05Zm-20.3-4.45q-1.57-11.25-9.46-17.37-8.28-6.42-21.39-6.42h-5.12v56.28h8.47a27.29,27.29,0,0,0,19.71-7.8q8.08-7.8,8.09-20A37.71,37.71,0,0,0,653.65,77.6Z"></path>
  <path class="a" d="M780,82.29q0,20.2-14.74,34.45A48.93,48.93,0,0,1,730,131q-20.6,0-35.09-15.28a51,51,0,0,1-14.48-36.36q0-19.62,15.07-33.17A51.39,51.39,0,0,1,731,32.62a46.73,46.73,0,0,1,34.65,14.64A48.27,48.27,0,0,1,780,82.29Zm-20-3.25a29.27,29.27,0,0,0-10-20,30.87,30.87,0,0,0-21.17-7.93q-11.85,0-20.29,9.22A30.6,30.6,0,0,0,700,81.7c0,.66,0,1.25.05,1.78a12.14,12.14,0,0,0,.15,1.38,29.73,29.73,0,0,0,9.8,19.46,28.83,28.83,0,0,0,20.16,7.93h1.57a8.3,8.3,0,0,1,1.48-.19,28.82,28.82,0,0,0,19.07-10,29.92,29.92,0,0,0,7.64-20.35V79Z"></path>
  <path class="a" d="M868.79,135,810.25,75.49v52.63L791,129.6V30.13l59,59.26V35.68l18.72-1.78Z"></path>
  <path class="a" d="M402,295.73a28.16,28.16,0,0,0-10.81-5.82,51.53,51.53,0,0,0-13.33-1.52q-12.5,0-20.89,10.28a35.56,35.56,0,0,0-8,23.2q0,12.06,9.65,21.09a30.5,30.5,0,0,0,21.41,8.71h2.73a36.77,36.77,0,0,0,10.39-2.34,29.29,29.29,0,0,0,8.61-5.95l-2.94,24.35a52.94,52.94,0,0,1-7,2.47,42.78,42.78,0,0,1-5.88,1.1,42.16,42.16,0,0,1-4.35.31h-2.37q-21.51,0-36.78-15.58a51.19,51.19,0,0,1-15.27-37.1A48.85,48.85,0,0,1,342,283.24a48.34,48.34,0,0,1,35.58-14.9,71.22,71.22,0,0,1,10.91.68,50.54,50.54,0,0,1,9.87,2.89Z"></path>
  <path class="a" d="M478.93,349.68,472.32,369H415V270.44h54.89l4.19,19.31H435.8v17.74h31.06V326.8H435.8v22.88Z"></path>
  <path class="a" d="M565.83,376.2l-62.34-63.36v56L483,370.46V264.54l62.87,63.1v-57.2l19.94-1.89Z"></path>
  <path class="a" d="M643.49,289.75H619.67v79.13L599.1,371V289.75H571.91l5.36-19.31h66.22Z"></path>
  <path class="a" d="M722.51,366.45l-20.88,6.29-30.54-51v47.12l-20.36,1.68V270.44h26.44q17.22,0,27.19,7.45,10.49,7.88,10.49,22,0,10.4-4.3,16.84t-13.23,10.65Zm-28.23-65.83q0-6.9-6.64-9.3-4.21-1.57-13.29-1.57h-3.26v25.19h4.09q11,0,15.64-4.18a11,11,0,0,0,3.46-8.57Z"></path>
  <path class="a" d="M800.07,349.68,793.46,369H736.15V270.44H791l4.2,19.31H756.93v17.74H788V326.8H756.93v22.88Z"></path>
  <path class="a" d="M869.44,339.81q0,13.76-9.4,22.72t-24.71,9a37.85,37.85,0,0,1-18.47-4.72A39.89,39.89,0,0,1,804.16,356l12.7-14.27a53,53,0,0,0,5.24,5.35q6.51,5.35,12.81,5.36,6,0,9.34-2.42,4.1-2.94,4.09-9.44,0-6.3-10.81-10.71L821,323.75q-7.25-4-10.29-8.08-5.14-6.81-5.14-18.57A25.76,25.76,0,0,1,815,276.84a32.72,32.72,0,0,1,22.14-8.19,41.28,41.28,0,0,1,19.31,4.41,29.47,29.47,0,0,1,11.44,9.76l-13.64,13.44q-.74-3-6.4-6.51a19.3,19.3,0,0,0-10.39-2.94,12.71,12.71,0,0,0-8.19,2.78,8.8,8.8,0,0,0-3.46,7.19q0,7.67,10.39,11.13,5.36,1.79,10.81,3.56,10.59,4.41,15.95,10.4A26.08,26.08,0,0,1,869.44,339.81Z"></path>
  <rect class="a" x="2.12" width="866.88" height="14.14"></rect>
  <rect class="a" y="388.98" width="867.51" height="14.02"></rect>
  <path class="a" d="M281.1,221.63a207.36,207.36,0,0,0-11-23.94c-2.9-5.35-3.11-21.43-16.81-21.43a20.67,20.67,0,0,0-3.46.3,16.92,16.92,0,0,1-2.84.24c-16.21,0-32.49-22.53-50.16-42.49-18.71-21.13-28.07-25.93-43.65-35.53A11.59,11.59,0,0,0,147,96.94a12.6,12.6,0,0,0-1.62.11c13,8.38,31.61,23.36,28.53,39.18-3,15.26-18.71,20.16-12.48,32.65s46.78,13.44,70.16,27.85,37.42,33.61,39,44.17c.87,5.89,6.07,11.76,10.52,16.64Z"></path>
  <path class="a" d="M281.1,283c-3-4.37-7.39-13.61-13.65-30.58-12.45-33.76-3.11-33.61-73.27-59.54-11.56-4.27-20.54-7.59-27.52-10.25-2.91,1-5.61,3.3-6.77,8.34-3,13.13,96.51,77.43,74.93,149.43a13.37,13.37,0,0,1-1.66,5.09c.64-1.7,1.14-3.4,1.66-5.09,2-12.47-2-48-79.61-133.11,0,0,6.23-19.21-26.51,1.92,0,0,18.22-21.8,31-29.28a86.53,86.53,0,0,1-12-5.45,7,7,0,0,1-2.22-1.88c-2-3,7.28-4.46,9.75-12.36,7.15-22.9,16.89-35.31-12.8-62.39-10.77,4.25-20,21.59-28.24,20.13-10.91-1.92-20.27,25-20.27,30.73s-21.82,36.5-31.17,39.37c-8.45,2.6-9.26,23.94-9.34,32.32,8-.53,36-.46,50.48,24.38,17,29.13,53.55,44,53.55,44s-17.85,2.75-51.76-24.19-43.74,28-49.09,38.48-19.64,29.88-30.34,31.53c-7.44,1.15-18.75,7.33-25.86,11v29.51H281.1Z"></path>
  <path class="a" d="M53.2,223.09c-1.87,5.62-38.92,11.23-43.48,16.85S.37,280.27.37,280.27v62.94c14.39-10.73,48-33.95,44.6-50.06C40.5,272.26,63.71,258,70.85,256.87s36.59-9.35,8.92-20.34c-7.09-2.82-10.49-3.86-12.06-3.86-4.54,0,9.68,10.31-9.56,10.31-2.34,0-5.68-.06-7,0-1.21.27-4-1-4.43-1-.74,0-.23-.22,2.67-.36,5-1.12,13.58-5.29,3.78-18.5"></path>
  <path class="b" d="M38.66,63.46"></path>
  <path class="c" d="M281.06,132.11l0-22.9v-5l0-18.93c-23.62-.86-24.3,18-24.3,18-25.6-7.54-22.4,31.86-22.4,31.86C213,95.7,253.5,94.86,253.5,94.86,252.38,79.39,267,76.52,281,77.25l-.08-47.41H1.41V232.08a25.9,25.9,0,0,1,4.86-4.6c.16-.13.35-.26.52-.38,6.46-4.49,15.11-6.11,22.6-8.18,3.76-1,7.47-2.13,11.14-3.47l.13,0c1-.49,2-1,3-1.54.44-.25.84-.51,1.26-.78l-.28.17c.21-.16.92-.63,1.21-.88s.71-.68.88-.85q.49-.78.93-1.59a.56.56,0,0,1,.09-.14v-.45s.25-1.43.27-1.43a80.69,80.69,0,0,0,.54-11.65l.44-5c.77-6.29,5.23-11.48,10.9-15.27a20.7,20.7,0,0,0,5.78-4.83,53.79,53.79,0,0,0,6.09-7.82l6.41-4.74a13.86,13.86,0,0,0,4.51-5.74v0c3.69-8.64,6.48-17.62,10.3-26.22l6.83-11.77a17.82,17.82,0,0,1,1.31-1.82,18.85,18.85,0,0,1,7-5.52,55.12,55.12,0,0,1,6.58-2.53c1-.32,2.08-.7,3.12-1l.32-.09.81-.46c.52-.49,1.71-1.53,1.87-1.69,1.71-1.67,3.3-3.45,5-5.17,2.6-2.7,10.13-10,13.17-12.18l4-1.31a14.25,14.25,0,0,1,12.27,1.64L157.1,86c13.21,7.45,26,18.85,36.27,30.23,1.19,1.32,2.4,2.61,3.61,3.89l4.81,5c3.1,3.22,6.17,6.46,9,9.89.84,1,1.69,2.1,2.52,3.22,3.94,5.3,7.77,11.28,12.36,14.62a15.7,15.7,0,0,1,2.21,1.92A13.28,13.28,0,0,1,229,156l4.69,5c.41.23,1.82,1.18,3.36,2.22a16.28,16.28,0,0,0,12.27,2.5c2.92-.58,5.56-1.24,9.87-.32a12,12,0,0,1,8.31,7.28c2.71,3.29,4.54,7.33,6.44,12a3.73,3.73,0,0,1-.21-.64c.1,0,1.6,3.09,1.83,3.5.67,1.25,1.38,2.48,2.09,3.71l3.41,5V156l0-22.9Z"></path>
</svg>
